<svg id="svg" xmlns="http://www.w3.org/2000/svg" xmlns:xlink="http://www.w3.org/1999/xlink" width="400" height="491.53242461792644" viewBox="0, 0, 400,491.53242461792644"><g id="svgg"><path id="path0" d="M190.665 7.604 C 140.187 10.470,97.896 45.249,85.743 93.889 L 85.073 96.572 51.996 129.657 L 18.919 162.742 27.964 171.789 L 37.010 180.836 36.969 214.686 L 36.927 248.536 35.109 248.903 C 6.695 254.640,-6.934 287.586,9.170 311.607 C 11.165 314.583,15.515 319.537,16.133 319.537 C 16.260 319.537,24.137 310.724,24.249 310.456 C 24.273 310.398,23.676 309.717,22.921 308.944 C 5.241 290.820,17.922 260.626,43.205 260.648 C 68.200 260.670,81.049 290.552,63.787 308.509 L 61.999 310.369 65.998 314.902 C 68.197 317.396,70.083 319.465,70.189 319.500 C 70.720 319.677,75.122 314.698,77.240 311.524 C 93.235 287.560,79.606 254.611,51.342 248.911 L 49.484 248.536 49.442 220.881 L 49.400 193.226 58.240 202.065 L 67.080 210.904 82.654 195.331 L 98.228 179.757 98.792 180.709 C 106.008 192.869,117.125 204.967,129.326 213.938 L 130.524 214.818 130.565 242.849 L 130.607 270.880 148.327 270.922 L 166.047 270.964 166.047 251.321 L 166.047 231.678 168.236 232.240 C 185.118 236.570,203.613 236.910,220.621 233.202 C 223.255 232.627,226.258 231.894,226.748 231.706 C 226.991 231.613,227.014 233.276,227.014 251.283 L 227.014 270.962 244.692 270.962 L 262.371 270.962 262.371 242.904 L 262.371 214.845 263.734 213.870 C 274.998 205.807,286.373 193.511,293.682 181.495 C 294.124 180.768,294.512 180.139,294.544 180.098 C 294.576 180.056,301.551 186.971,310.044 195.463 L 325.485 210.904 334.325 202.065 L 343.165 193.226 343.123 220.881 L 343.081 248.536 341.193 248.917 C 312.948 254.613,299.342 287.545,315.326 311.524 C 317.445 314.703,321.850 319.675,322.388 319.496 C 322.493 319.461,324.376 317.393,326.573 314.900 L 330.568 310.368 328.894 308.627 C 319.599 298.964,318.290 284.298,325.730 273.193 C 335.279 258.942,354.845 256.279,368.003 267.440 C 380.600 278.124,381.101 298.472,369.041 309.588 C 368.621 309.975,368.278 310.328,368.278 310.372 C 368.278 310.504,376.213 319.450,376.383 319.510 C 376.906 319.694,381.416 314.598,383.474 311.498 C 399.460 287.422,385.831 254.632,357.456 248.903 L 355.638 248.536 355.596 214.686 L 355.555 180.836 364.601 171.789 L 373.647 162.742 340.824 129.905 L 308.001 97.067 307.234 93.974 C 294.180 41.271,244.608 4.542,190.665 7.604 M203.717 20.173 C 251.862 23.478,291.454 60.904,297.383 108.715 C 305.517 174.313,250.643 230.039,185.130 222.710 C 125.880 216.082,85.071 160.083,96.760 101.446 C 106.718 51.489,152.553 16.661,203.717 20.173 M189.261 20.412 C 144.039 25.040,113.567 68.210,124.413 112.285 C 136.654 162.028,195.080 184.588,237.753 156.049 C 285.395 124.186,280.373 52.453,228.748 27.439 C 216.892 21.694,202.230 19.085,189.261 20.412 M202.272 36.851 C 245.286 41.137,268.598 90.235,244.670 126.146 C 219.981 163.200,164.642 159.858,144.806 120.116 C 124.571 79.575,157.160 32.357,202.272 36.851 M82.347 119.413 C 81.755 133.687,85.301 152.030,91.406 166.269 L 92.245 168.226 79.662 180.808 L 67.080 193.391 51.756 178.067 L 36.432 162.743 59.397 139.777 C 72.028 127.146,82.383 116.811,82.409 116.811 C 82.434 116.811,82.407 117.982,82.347 119.413 M340.810 178.067 L 325.486 193.391 313.094 181.000 C 306.278 174.185,300.702 168.529,300.702 168.430 C 300.702 168.332,301.008 167.551,301.383 166.695 C 307.384 152.969,310.612 137.117,310.615 121.355 L 310.615 117.224 333.375 139.984 L 356.134 162.743 340.810 178.067 M151.508 226.568 L 153.573 227.450 153.615 242.928 L 153.657 258.406 148.369 258.406 L 143.081 258.406 143.081 240.486 L 143.081 222.567 146.262 224.126 C 148.011 224.984,150.372 226.083,151.508 226.568 M249.979 240.479 L 249.979 258.406 244.692 258.406 L 239.405 258.406 239.406 242.916 L 239.406 227.427 241.843 226.390 C 243.183 225.820,245.506 224.735,247.005 223.979 C 248.505 223.223,249.787 222.593,249.855 222.579 C 249.924 222.564,249.979 230.620,249.979 240.479 M144.403 274.016 C 125.368 277.161,114.651 297.502,122.944 314.746 C 132.374 334.355,159.025 336.851,172.008 319.342 C 183.513 303.824,176.158 280.982,157.769 275.120 C 153.904 273.888,148.086 273.407,144.403 274.016 M241.636 273.880 C 218.254 277.505,208.422 304.206,224.006 321.760 C 235.056 334.207,255.615 334.113,266.593 321.566 C 281.274 304.787,272.747 278.965,250.971 274.259 C 249.278 273.893,243.154 273.645,241.636 273.880 M150.764 286.180 C 164.335 287.836,169.983 304.301,160.280 313.920 C 149.749 324.359,131.945 316.562,132.550 301.776 C 132.942 292.207,141.325 285.028,150.764 286.180 M249.194 286.565 C 262.263 289.914,265.905 306.740,255.382 315.159 C 245.432 323.120,230.586 317.000,228.990 304.280 C 227.587 293.091,238.233 283.756,249.194 286.565 M130.635 334.517 C 130.574 334.578,130.525 359.411,130.525 389.701 L 130.525 444.775 148.286 444.775 L 166.047 444.775 166.047 389.591 L 166.047 334.407 148.396 334.407 C 138.688 334.407,130.695 334.457,130.635 334.517 M227.014 389.591 L 227.014 444.775 244.692 444.775 L 262.371 444.775 262.371 389.591 L 262.371 334.407 244.692 334.407 L 227.014 334.407 227.014 389.591 M153.656 389.591 L 153.656 432.383 148.368 432.383 L 143.081 432.383 143.081 389.591 L 143.081 346.799 148.368 346.799 L 153.656 346.799 153.656 389.591 M249.979 389.591 L 249.979 432.383 244.692 432.383 L 239.405 432.383 239.405 389.591 L 239.405 346.799 244.692 346.799 L 249.979 346.799 249.979 389.591 M110.202 466.997 L 110.202 486.906 116.398 486.906 L 122.594 486.906 122.594 473.193 L 122.594 459.480 148.285 459.480 L 173.976 459.480 174.018 473.152 L 174.060 486.824 180.256 486.824 L 186.452 486.824 186.452 466.997 L 186.452 447.171 148.327 447.129 L 110.202 447.087 110.202 466.997 M206.526 466.997 L 206.526 486.906 212.722 486.906 L 218.918 486.906 218.918 473.193 L 218.918 459.480 244.692 459.480 L 270.467 459.480 270.467 473.193 L 270.467 486.906 276.663 486.906 L 282.858 486.906 282.858 466.997 L 282.858 447.088 244.692 447.088 L 206.526 447.088 206.526 466.997 " stroke="none" fill="#000000" fill-rule="evenodd"/></g></svg>